# This file uses centimeters as units for non-parametric coordinates.

mtllib Rock_01_LP.mtl
g default
v 29.322447 6.266570 18.705524
v 26.647146 0.282873 20.038099
v 22.939732 0.474475 -5.542233
v 26.111273 6.706159 -3.516359
v 2.620620 0.289014 -20.781956
v 5.621529 17.212845 -21.613503
v -3.683558 5.099281 -22.648130
v 1.609034 18.932507 -22.410324
v -11.247470 3.372201 -18.573757
v -2.983101 20.879652 -20.020342
v -18.596424 3.738825 -8.388624
v -13.320312 24.911690 0.123022
v -7.829605 0.663809 -16.061907
v -14.209373 0.490623 -9.860568
v -14.300410 0.246103 12.177417
v -20.221529 2.906352 12.461140
v 28.127996 3.159196 19.356375
v 24.580046 3.521518 -4.588977
v 4.265109 9.510519 -21.905769
v -1.470316 11.557946 -23.221537
v -8.680524 12.925767 -17.898327
v -16.338198 14.341915 -4.423009
v -18.243008 12.022524 16.096725
v -14.046235 24.149759 9.957222
v 18.210485 5.896472 27.908689
v 15.500739 3.613207 30.191418
v 14.100825 0.324363 30.869425
v 16.491179 11.181892 24.405020
v 24.794771 10.279108 18.416348
v 22.941847 12.045129 0.416395
v -6.166796 4.122799 28.874491
v -7.711083 0.069478 22.021351
v -1.417699 16.182884 23.257677
v -5.229570 11.690399 26.174517
v 5.534152 0.341588 5.485879
vt 0.997996 0.215806
vt 0.000249 0.073846
vt 0.839553 0.223176
vt 0.852172 0.202316
vt 0.669073 0.161520
vt 0.685125 0.112787
vt 0.635904 0.137494
vt 0.544128 0.772089
vt 0.581769 0.117254
vt 0.629868 0.066820
vt 0.482398 0.086321
vt 0.434970 0.838104
vt 0.238388 0.851508
vt 0.234136 0.736373
vt 0.562116 0.181381
vt 0.616062 0.178486
vt 0.316468 0.786602
vt 0.487912 0.164669
vt 0.143685 0.707543
vt 0.365451 0.145866
vt 0.223039 0.618756
vt 0.298411 0.631001
vt 0.391132 0.000000
vt 0.350339 0.083496
vt 0.087531 0.089383
vt 0.103077 0.112995
vt 0.331730 0.734201
vt 0.995524 0.175160
vt 0.333884 0.679206
vt 0.446979 0.661237
vt 0.197604 0.847343
vt 0.240445 0.124049
vt 0.331812 0.765009
vt 0.247203 0.071601
vt 0.149993 0.824388
vt 0.349060 0.183633
vt 0.268990 0.168610
vt 0.107317 0.137802
vt 0.002733 0.096348
vt 0.500324 0.199629
vt 0.564812 0.214191
vt 0.651292 0.222232
vt 0.827041 0.243754
vt 0.235789 0.029721
vt 0.389420 0.836901
vt 0.103094 0.047451
vt 0.664743 0.089442
vt 0.871237 0.157641
vt 0.365095 0.643599
vt 0.468327 0.008128
vt 0.531372 0.794148
vt 0.000000 0.050772
vt 0.034229 0.027358
vt 0.999195 0.239048
vt 1.000000 0.261401
vn 0.944060 0.294438 0.148516
vn 0.915482 -0.347807 0.202293
vn 0.764573 -0.235214 -0.600086
vn 0.855931 0.267623 -0.442448
vn 0.528522 -0.114672 -0.841139
vn 0.653849 0.455621 -0.604063
vn -0.234203 0.080471 -0.968852
vn 0.320895 0.926417 -0.196921
vn -0.734356 0.343996 -0.585140
vn 0.120900 0.973868 -0.192260
vn -0.903539 0.328924 -0.274640
vn -0.024314 0.999704 0.000614
vn 0.439741 -0.265070 -0.858118
vn -0.360761 -0.737440 -0.570994
vn -0.727315 -0.052712 -0.684276
vn -0.282487 -0.231006 -0.931041
vn -0.516890 -0.832469 -0.199552
vn -0.949821 -0.137982 -0.280714
vn -0.511711 -0.840948 0.175949
vn -0.967115 -0.174643 0.184901
vn 0.878261 -0.348174 0.327768
vn 0.700530 -0.249510 -0.668583
vn -0.026196 0.971886 0.233991
vn -0.844264 0.337341 0.416437
vn 0.292173 0.422539 0.857960
vn 0.131201 0.093677 0.986920
vn 0.012496 -0.523815 0.851740
vn 0.417605 0.895172 0.155795
vn 0.246712 0.902090 0.354073
vn 0.445065 0.895495 0.002441
vn -0.402850 -0.726785 0.556322
vn -0.399642 -0.078589 0.913296
vn 0.157889 0.903594 0.398233
vn -0.365697 0.435087 0.822779
vn 0.004073 -0.999880 -0.014950
vn 0.003251 -0.999980 -0.005439
vn 0.000310 -0.999911 -0.013349
vn 0.005561 -0.999979 -0.003272
vn -0.000608 -0.999995 -0.003153
vn 0.004708 -0.999986 -0.002267
vn 0.008936 -0.999917 -0.009297
vn -0.016071 -0.999858 -0.004984
vn -0.011467 -0.999929 0.003273
s 1
g Rock_01_LP
usemtl initialShadingGroup
f 1/1/1 17/54/2 18/3/3 4/4/4
f 18/3/3 19/5/5 6/6/6 4/4/4
f 6/6/6 19/5/5 20/7/7 8/47/8
f 8/47/8 20/7/7 21/9/9 10/10/10
f 21/9/9 22/11/11 12/50/12 10/10/10
f 5/42/13 13/41/14 9/15/15 7/16/16
f 13/41/14 14/40/17 11/18/18 9/15/15
f 14/40/17 15/36/19 16/20/20 11/18/18
f 18/3/3 17/54/2 2/55/21 3/43/22
f 3/43/22 5/42/13 19/5/5 18/3/3
f 20/7/7 19/5/5 5/42/13 7/16/16
f 21/9/9 20/7/7 7/16/16 9/15/15
f 9/15/15 11/18/18 22/11/11 21/9/9
f 24/23/23 12/50/12 22/11/11 23/24/24
f 23/24/24 22/11/11 11/18/18 16/20/20
f 1/52/1 25/25/25 26/26/26 17/2/2
f 17/2/2 26/26/26 27/38/27 2/39/21
f 29/53/28 28/46/29 25/25/25 1/52/1
f 30/48/30 29/28/28 1/1/1 4/4/4
f 4/4/4 6/6/6 8/47/8 30/48/30
f 10/51/10 12/12/12 30/30/30 8/8/8
f 32/37/31 27/38/27 26/26/26 31/32/32
f 28/46/29 33/44/33 34/34/34 25/25/25
f 25/25/25 34/34/34 31/32/32 26/26/26
f 23/24/24 34/34/34 33/44/33 24/23/23
f 15/36/19 32/37/31 31/32/32 16/20/20
f 34/34/34 23/24/24 16/20/20 31/32/32
f 33/33/33 28/29/29 29/49/28 30/30/30
f 33/33/33 30/30/30 12/12/12 24/45/23
s 3
f 14/13/35 35/14/36 15/17/37
f 3/19/38 2/21/39 35/14/36
f 35/14/36 2/21/39 27/22/40
f 35/14/36 27/22/40 32/27/41
f 35/14/36 32/27/41 15/17/37
f 13/31/42 35/14/36 14/13/35
f 5/35/43 35/14/36 13/31/42
f 3/19/38 35/14/36 5/35/43
